mtllib Boxes.mtl
g g0
v 0.425802 0.29707 -0.143585
v 0.425802 0.29707 0.143585
v 0.425802 -0.29707 0.143585
v 0.425802 -0.29707 -0.143585
v -2.83726e-06 0.29707 0.143585
v -0.425802 0.29707 0.143585
v -2.81692e-06 -0.29707 0.143585
v -0.425802 -0.29707 0.143585
v -0.425802 -0.29707 -0.143585
v -2.78591e-06 0.29707 -0.143585
v -0.425802 0.29707 -0.143585
v -2.76557e-06 -0.29707 -0.143585
vn 1 0 0
vn 1 0 0
vn 1 0 0
vn 1 0 0
vn 1 0 0
vn 1 0 0
vn -4.66604e-08 1 -4.17177e-15
vn -6.99906e-08 1 -6.25765e-15
vn -6.99906e-08 1 0
vn -6.99906e-08 1 -6.25765e-15
vn -4.66604e-08 1 -4.17177e-15
vn -2.33302e-08 1 -4.17177e-15
vn 2.33305e-08 -1 4.17182e-15
vn 0 -1 0
vn 0 -1 0
vn 0 -1 0
vn 2.33305e-08 -1 4.17182e-15
vn 4.6661e-08 -1 4.17182e-15
vn 0 1 0
vn -2.33302e-08 1 -4.17177e-15
vn -4.66604e-08 1 -4.17177e-15
vn -2.33302e-08 1 -4.17177e-15
vn 0 1 0
vn 0 1 0
vn -1 0 0
vn -1 0 0
vn -1 0 0
vn -1 0 0
vn -1 0 0
vn -1 0 0
vn 6.99915e-08 -1 6.25773e-15
vn 4.6661e-08 -1 4.17182e-15
vn 2.33305e-08 -1 4.17182e-15
vn 4.6661e-08 -1 4.17182e-15
vn 6.99915e-08 -1 6.25773e-15
vn 6.99915e-08 -1 0
vn 2.09974e-07 3.59356e-15 -1
vn 2.09974e-07 3.59356e-15 -1
vn 2.09974e-07 0 -1
vn 2.09974e-07 3.59356e-15 -1
vn 2.09974e-07 3.59356e-15 -1
vn 2.09974e-07 7.18712e-15 -1
vt 4.16671e-32 0
vt 4.16671e-32 0
vt 4.16671e-32 0
vt 4.16671e-32 0
vt 4.16671e-32 0
vt 4.16671e-32 0
vt 4.16671e-32 0
vt 4.16671e-32 0
vt 4.16671e-32 0
vt 4.16671e-32 0
vt 4.16671e-32 0
vt 4.16671e-32 0
vt 4.16671e-32 0
vt 4.16671e-32 0
vt 4.16671e-32 0
vt 4.16671e-32 0
vt 4.16671e-32 0
vt 4.16671e-32 0
vt 4.16671e-32 0
vt 4.16671e-32 0
vt 4.16671e-32 0
vt 4.16671e-32 0
vt 4.16671e-32 0
vt 4.16671e-32 0
vt 4.16671e-32 0
vt 4.16671e-32 0
vt 4.16671e-32 0
vt 4.16671e-32 0
vt 4.16671e-32 0
vt 4.16671e-32 0
vt 4.16671e-32 0
vt 4.16671e-32 0
vt 4.16671e-32 0
vt 4.16671e-32 0
vt 4.16671e-32 0
vt 4.16671e-32 0
vt 4.16671e-32 0
vt 4.16671e-32 0
vt 4.16671e-32 0
vt 4.16671e-32 0
vt 4.16671e-32 0
vt 4.16671e-32 0
usemtl acmat_0
f 4/1/1 2/2/2 3/3/3
f 2/4/4 4/5/5 1/6/6
f 10/7/7 2/8/8 1/9/9
f 2/10/10 10/11/11 5/12/12
f 7/13/13 4/14/14 3/15/15
f 4/16/16 7/17/17 12/18/18
f 11/19/19 5/20/20 10/21/21
f 5/22/22 11/23/23 6/24/24
f 11/25/25 8/26/26 6/27/27
f 8/28/28 11/29/29 9/30/30
f 8/31/31 12/32/32 7/33/33
f 12/34/34 8/35/35 9/36/36
f 11/37/37 12/38/38 9/39/39
f 12/40/40 11/41/41 10/42/42
v 0.425802 -0.29707 0.143585
v 0.404223 0.274191 0.143585
v 0.404223 -0.280341 0.143585
v 0.0180302 -0.280341 0.143585
v 0.425802 0.29707 0.143585
v 0.0180302 0.274191 0.143585
v -2.81692e-06 -0.29707 0.143585
v -0.0215769 0.274191 0.143585
v -0.0215768 -0.280341 0.143585
v -0.407769 -0.280341 0.143585
v -0.425802 -0.29707 0.143585
v -2.83726e-06 0.29707 0.143585
v -0.407769 0.274191 0.143585
v -0.425802 0.29707 0.143585
vn -6.99906e-08 -9.02817e-08 1
vn -1.4716e-07 -7.09693e-09 1
vn -7.80668e-08 -2.23835e-08 1
vn -6.99906e-08 -9.02817e-08 1
vn -7.71695e-08 7.27855e-08 1
vn -1.4716e-07 -7.09693e-09 1
vn -7.71695e-08 7.27855e-08 1
vn -1.4716e-07 1.7619e-08 1
vn -1.1037e-07 1.32142e-08 1
vn -1.4716e-07 1.7619e-08 1
vn -7.71695e-08 7.27855e-08 1
vn -6.99906e-08 -9.02817e-08 1
vn -1.15754e-07 1.24777e-07 1
vn -7.80668e-08 -2.23835e-08 1
vn -1.4716e-07 -7.09693e-09 1
vn -1.1037e-07 1.32142e-08 1
vn -7.80668e-08 -2.23835e-08 1
vn -1.15754e-07 1.24777e-07 1
vn -1.1037e-07 1.32142e-08 1
vn -8.61427e-08 -2.78196e-08 1
vn -7.80668e-08 -2.23835e-08 1
vn -8.61427e-08 -2.78196e-08 1
vn -1.1037e-07 1.32142e-08 1
vn -1.4716e-07 1.7619e-08 1
vn -7.80668e-08 -2.23835e-08 1
vn -7.35806e-08 -3.53817e-09 1
vn -5.51854e-08 -2.65362e-09 1
vn -7.80668e-08 -2.23835e-08 1
vn -3.85849e-08 3.63845e-08 1
vn -7.35806e-08 -3.53817e-09 1
vn -3.85849e-08 3.63845e-08 1
vn -8.61427e-08 -2.78196e-08 1
vn -5.51854e-08 6.60039e-09 1
vn -8.61427e-08 -2.78196e-08 1
vn -3.85849e-08 3.63845e-08 1
vn -7.80668e-08 -2.23835e-08 1
vn -5.78773e-08 6.23894e-08 1
vn -5.51854e-08 -2.65362e-09 1
vn -7.35806e-08 -3.53817e-09 1
vn -5.51854e-08 6.60039e-09 1
vn -5.51854e-08 -2.65362e-09 1
vn -5.78773e-08 6.23894e-08 1
vn -5.51854e-08 6.60039e-09 1
vn -5.24936e-08 -4.1376e-08 1
vn -5.51854e-08 -2.65362e-09 1
vn -5.24936e-08 -4.1376e-08 1
vn -5.51854e-08 6.60039e-09 1
vn -8.61427e-08 -2.78196e-08 1
vt 1.4217 1.99038
vt 1.38475 1.94272
vt 1.4217 1.04987
vt 1.4217 1.99038
vt 0.159904 1.94272
vt 1.38475 1.94272
vt 0.159904 1.94272
vt 0.109361 1.99038
vt 0.159904 1.0897
vt 0.109361 1.99038
vt 0.159904 1.94272
vt 1.4217 1.99038
vt 1.38475 1.0897
vt 1.4217 1.04987
vt 1.38475 1.94272
vt 0.159904 1.0897
vt 1.4217 1.04987
vt 1.38475 1.0897
vt 0.159904 1.0897
vt 0.109361 1.04987
vt 1.4217 1.04987
vt 0.109361 1.04987
vt 0.159904 1.0897
vt 0.109361 1.99038
vt 1.4217 1.04987
vt 1.38475 1.00221
vt 1.4217 0.109361
vt 1.4217 1.04987
vt 0.159904 1.00221
vt 1.38475 1.00221
vt 0.159904 1.00221
vt 0.109361 1.04987
vt 0.159904 0.14919
vt 0.109361 1.04987
vt 0.159904 1.00221
vt 1.4217 1.04987
vt 1.38475 0.14919
vt 1.4217 0.109361
vt 1.38475 1.00221
vt 0.159904 0.14919
vt 1.4217 0.109361
vt 1.38475 0.14919
vt 0.159904 0.14919
vt 0.109361 0.109361
vt 1.4217 0.109361
vt 0.109361 0.109361
vt 0.159904 0.14919
vt 0.109361 1.04987
f 13/43/43 15/44/44 19/45/45
f 13/46/46 14/47/47 15/48/48
f 14/49/49 17/50/50 18/51/51
f 17/52/52 14/53/53 13/54/54
f 16/55/55 19/56/56 15/57/57
f 18/58/58 19/59/59 16/60/60
f 18/61/61 24/62/62 19/63/63
f 24/64/64 18/65/65 17/66/66
f 19/67/67 21/68/68 23/69/69
f 19/70/70 20/71/71 21/72/72
f 20/73/73 24/74/74 25/75/75
f 24/76/76 20/77/77 19/78/78
f 22/79/79 23/80/80 21/81/81
f 25/82/82 23/83/83 22/84/84
f 25/85/85 26/86/86 23/87/87
f 26/88/88 25/89/89 24/90/90
v -0.407769 -0.280341 0.143585
v -0.407769 0.274191 0.143585
v -0.0215769 0.274191 0.143585
v -0.0215768 -0.280341 0.143585
v -0.0215768 -0.280341 -0.123777
v -0.407769 0.274191 -0.123777
v -0.0215768 0.274191 -0.123777
v -0.407769 -0.280341 -0.123777
vn -7.71697e-08 1 -7.2579e-15
vn -7.71697e-08 1 -7.2579e-15
vn -7.71697e-08 1 -1.45158e-14
vn -7.71697e-08 1 -7.2579e-15
vn -7.71697e-08 1 -7.2579e-15
vn -7.71697e-08 1 0
vn 1 0 0
vn 1 0 0
vn 1 0 0
vn 1 0 0
vn 1 0 0
vn 1 0 0
vn 0 -1 0
vn 0 -1 0
vn 0 -1 0
vn 0 -1 0
vn 0 -1 0
vn 0 -1 0
vn -1 -3.35895e-08 -1.88102e-07
vn -1 -3.35895e-08 -1.88102e-07
vn -1 -3.35895e-08 -1.88102e-07
vn -1 -3.35895e-08 -1.88102e-07
vn -1 -3.35895e-08 -1.88102e-07
vn -1 -3.35895e-08 -1.88102e-07
vn -1.73632e-07 -2.9161e-15 1
vn -1.73632e-07 -2.9161e-15 1
vn -1.73632e-07 -5.83221e-15 1
vn -1.73632e-07 -2.9161e-15 1
vn -1.73632e-07 -2.9161e-15 1
vn -1.73632e-07 0 1
vt 1.51619e-32 0
vt 1.51619e-32 0
vt 1.51619e-32 0
vt 1.51619e-32 0
vt 1.51619e-32 0
vt 1.51619e-32 0
vt 1.51619e-32 0
vt 1.51619e-32 0
vt 1.51619e-32 0
vt 1.51619e-32 0
vt 1.51619e-32 0
vt 1.51619e-32 0
vt 1.51619e-32 0
vt 1.51619e-32 0
vt 1.51619e-32 0
vt 1.51619e-32 0
vt 1.51619e-32 0
vt 1.51619e-32 0
vt 1.51619e-32 0
vt 1.51619e-32 0
vt 1.51619e-32 0
vt 1.51619e-32 0
vt 1.51619e-32 0
vt 1.51619e-32 0
vt 1.51619e-32 0
vt 1.51619e-32 0
vt 1.51619e-32 0
vt 1.51619e-32 0
vt 1.51619e-32 0
vt 1.51619e-32 0
f 34/91/91 30/92/92 31/93/93
f 30/94/94 34/95/95 27/96/96
f 34/97/97 28/98/98 27/99/99
f 28/100/100 34/101/101 32/102/102
f 28/103/103 33/104/104 29/105/105
f 33/106/106 28/107/107 32/108/108
f 33/109/109 30/110/110 29/111/111
f 30/112/112 33/113/113 31/114/114
f 33/115/115 34/116/116 31/117/117
f 34/118/118 33/119/119 32/120/120
v 0.425802 -0.29707 -0.143585
v 0.425802 0.29707 -0.143585
v -2.83726e-06 0.29707 0.143585
v -2.76557e-06 -0.29707 -0.143585
v -2.78591e-06 0.29707 -0.143585
v -2.81692e-06 -0.29707 0.143585
vn -1.04986e-07 -1.79676e-15 1
vn -1.04986e-07 -1.79676e-15 1
vn -1.04986e-07 0 1
vn -1.04986e-07 -1.79676e-15 1
vn -1.04986e-07 -1.79676e-15 1
vn -1.04986e-07 -3.59351e-15 1
vn -1 -3.42285e-08 -1.78814e-07
vn -1 -3.42285e-08 -1.78814e-07
vn -1 -3.42285e-08 -1.78814e-07
vn -1 -3.42285e-08 -1.78814e-07
vn -1 -3.42285e-08 -1.78814e-07
vn -1 -3.42285e-08 -1.78814e-07
vt 1.51711e-32 0
vt 1.51711e-32 0
vt 1.51711e-32 0
vt 1.51711e-32 0
vt 1.51711e-32 0
vt 1.51711e-32 0
vt 1.51711e-32 0
vt 1.51711e-32 0
vt 1.51711e-32 0
vt 1.51711e-32 0
vt 1.51711e-32 0
vt 1.51711e-32 0
f 36/121/121 38/122/122 35/123/123
f 38/124/124 36/125/125 39/126/126
f 39/127/127 40/128/128 37/129/129
f 40/130/130 39/131/131 38/132/132
v 0.0180302 -0.280341 0.143585
v 0.0180302 0.274191 0.143585
v 0.404223 0.274191 0.143585
v 0.404223 -0.280341 0.143585
v 0.404223 -0.280341 -0.123777
v 0.0180302 0.274191 -0.123777
v 0.404223 0.274191 -0.123777
v 0.0180302 -0.280341 -0.123777
vn 0 1 0
vn 0 1 0
vn 0 1 0
vn 0 1 0
vn 0 1 0
vn 0 1 0
vn 1 3.69485e-08 1.67202e-07
vn 1 3.69485e-08 1.67202e-07
vn 1 3.69485e-08 1.67202e-07
vn 1 3.69485e-08 1.67202e-07
vn 1 3.69485e-08 1.67202e-07
vn 1 3.69485e-08 1.67202e-07
vn 7.71695e-08 -1 6.45146e-15
vn 7.71695e-08 -1 6.45146e-15
vn 7.71695e-08 -1 0
vn 7.71695e-08 -1 6.45146e-15
vn 7.71695e-08 -1 6.45146e-15
vn 7.71695e-08 -1 1.29029e-14
vn -1 -5.37432e-08 0
vn -1 -5.37432e-08 0
vn -1 -5.37432e-08 0
vn -1 -5.37432e-08 0
vn -1 -5.37432e-08 0
vn -1 -5.37432e-08 0
vn -1.73631e-07 -7.87346e-15 1
vn -1.73631e-07 -7.87346e-15 1
vn -1.73631e-07 -9.33151e-15 1
vn -1.73631e-07 -7.87346e-15 1
vn -1.73631e-07 -7.87346e-15 1
vn -1.73631e-07 -6.41542e-15 1
vt 1.51619e-32 0
vt 1.51619e-32 0
vt 1.51619e-32 0
vt 1.51619e-32 0
vt 1.51619e-32 0
vt 1.51619e-32 0
vt 1.51619e-32 0
vt 1.51619e-32 0
vt 1.51619e-32 0
vt 1.51619e-32 0
vt 1.51619e-32 0
vt 1.51619e-32 0
vt 1.51619e-32 0
vt 1.51619e-32 0
vt 1.51619e-32 0
vt 1.51619e-32 0
vt 1.51619e-32 0
vt 1.51619e-32 0
vt 1.51619e-32 0
vt 1.51619e-32 0
vt 1.51619e-32 0
vt 1.51619e-32 0
vt 1.51619e-32 0
vt 1.51619e-32 0
vt 1.51619e-32 0
vt 1.51619e-32 0
vt 1.51619e-32 0
vt 1.51619e-32 0
vt 1.51619e-32 0
vt 1.51619e-32 0
f 48/133/133 44/134/134 45/135/135
f 44/136/136 48/137/137 41/138/138
f 48/139/139 42/140/140 41/141/141
f 42/142/142 48/143/143 46/144/144
f 42/145/145 47/146/146 43/147/147
f 47/148/148 42/149/149 46/150/150
f 47/151/151 44/152/152 43/153/153
f 44/154/154 47/155/155 45/156/156
f 47/157/157 48/158/158 45/159/159
f 48/160/160 47/161/161 46/162/162
