solid OpenSCAD_Model
  facet normal -0 0 1
    outer loop
      vertex -0.0625 0.075 0.36
      vertex 0.0625 -0.075 0.36
      vertex 0.0625 0.075 0.36
    endloop
  endfacet
  facet normal 0 0 1
    outer loop
      vertex 0.0625 -0.075 0.36
      vertex -0.0625 0.075 0.36
      vertex -0.0625 -0.075 0.36
    endloop
  endfacet
  facet normal 0 0 -1
    outer loop
      vertex -0.0625 -0.075 0.01
      vertex 0.0625 0.075 0.01
      vertex 0.0625 -0.075 0.01
    endloop
  endfacet
  facet normal -0 0 -1
    outer loop
      vertex 0.0625 0.075 0.01
      vertex -0.0625 -0.075 0.01
      vertex -0.0625 0.075 0.01
    endloop
  endfacet
  facet normal 0 -1 0
    outer loop
      vertex -0.0625 -0.075 0.01
      vertex 0.0625 -0.075 0.36
      vertex -0.0625 -0.075 0.36
    endloop
  endfacet
  facet normal 0 -1 -0
    outer loop
      vertex 0.0625 -0.075 0.36
      vertex -0.0625 -0.075 0.01
      vertex 0.0625 -0.075 0.01
    endloop
  endfacet
  facet normal 1 -0 0
    outer loop
      vertex 0.0625 -0.075 0.36
      vertex 0.0625 0.075 0.01
      vertex 0.0625 0.075 0.36
    endloop
  endfacet
  facet normal 1 0 0
    outer loop
      vertex 0.0625 0.075 0.01
      vertex 0.0625 -0.075 0.36
      vertex 0.0625 -0.075 0.01
    endloop
  endfacet
  facet normal 0 1 -0
    outer loop
      vertex 0.0625 0.075 0.01
      vertex -0.0625 0.075 0.36
      vertex 0.0625 0.075 0.36
    endloop
  endfacet
  facet normal 0 1 0
    outer loop
      vertex -0.0625 0.075 0.36
      vertex 0.0625 0.075 0.01
      vertex -0.0625 0.075 0.01
    endloop
  endfacet
  facet normal -1 0 0
    outer loop
      vertex -0.0625 -0.075 0.01
      vertex -0.0625 0.075 0.36
      vertex -0.0625 0.075 0.01
    endloop
  endfacet
  facet normal -1 -0 0
    outer loop
      vertex -0.0625 0.075 0.36
      vertex -0.0625 -0.075 0.01
      vertex -0.0625 -0.075 0.36
    endloop
  endfacet
endsolid OpenSCAD_Model
