mtllib place.mtl
g g0
v -0.0838361 0.0932385 -0.0166377
v 0.0838361 0.0932385 -0.0166377
v 0.0838361 0.0932385 -0.00754663
v -0.0838361 0.0932385 -0.00754663
v -0.0838361 -0.0932385 -0.00754663
v 0.0838361 -0.0932385 -0.00754663
v 0.0838361 -0.0932385 -0.0166377
v -0.0838361 -0.0932385 -0.0166377
v 0.00866026 0.00499986 -0.412213
v 0.005 0.00866006 -0.412213
v 0 0.00999986 -0.412213
v -0.005 0.00866006 -0.412213
v -0.00866026 0.00499986 -0.412213
v -0.01 -1.546e-07 -0.412213
v -0.00866026 -0.00500015 -0.412213
v -0.005 -0.0086604 -0.412213
v 0 -0.0100002 -0.412213
v 0.005 -0.0086604 -0.412213
v 0.00866026 -0.00500015 -0.412213
v 0.01 -1.546e-07 -0.412213
v 0.00866026 0.00499986 -0.0122135
v 0.005 0.00866006 -0.0122135
v 0 0.00999986 -0.0122135
v -0.005 0.00866006 -0.0122135
v -0.00866026 0.00499986 -0.0122135
v -0.01 -1.546e-07 -0.0122135
v -0.00866026 -0.00500015 -0.0122135
v -0.005 -0.0086604 -0.0122135
v 0 -0.0100002 -0.0122135
v 0.005 -0.0086604 -0.0122135
v 0.00866026 -0.00500015 -0.0122135
v 0.01 -1.546e-07 -0.0122135
v 0 -1.546e-07 -0.412213
v 0 -1.546e-07 -0.0122135
vn 0 -1 0
vn 0 -1 0
vn 0 -1 0
vn 0 -1 0
vn 0 1 0
vn 0 1 0
vn 0 1 0
vn 0 1 0
vn 0 0 1
vn 0 0 1
vn 0 0 1
vn 0 0 1
vn 0 0 -1
vn 0 0 -1
vn 0 0 -1
vn 0 0 -1
vn -1 0 0
vn -1 0 0
vn -1 0 0
vn -1 0 0
vn 1 0 0
vn 1 0 0
vn 1 0 0
vn 1 0 0
vn 0.500001 0.866025 0
vn 0.500001 0.866025 0
vn 0.866024 0.500003 7.79831e-11
vn 0.866024 0.500003 7.79831e-11
vn -1.07988e-07 1 0
vn -1.07988e-07 1 0
vn 0.500001 0.866025 0
vn 0.500001 0.866025 0
vn -0.500001 0.866025 0
vn -0.500001 0.866025 0
vn -1.07988e-07 1 0
vn -1.07988e-07 1 0
vn -0.866023 0.500004 7.79836e-11
vn -0.866023 0.500004 7.79836e-11
vn -0.500001 0.866025 0
vn -0.500001 0.866025 0
vn -1 -2.62256e-07 -3.8992e-11
vn -1 -2.62256e-07 -3.8992e-11
vn -0.866023 0.500004 7.79836e-11
vn -0.866023 0.500004 7.79836e-11
vn -0.866025 -0.5 -1.16976e-10
vn -0.866025 -0.5 -1.16976e-10
vn -1 -2.62256e-07 -3.8992e-11
vn -1 -2.62256e-07 -3.8992e-11
vn -0.5 -0.866025 1.45519e-10
vn -0.5 -0.866025 1.45519e-10
vn -0.866025 -0.5 -1.16976e-10
vn -0.866025 -0.5 -1.16976e-10
vn 0 -1 2.91038e-10
vn 0 -1 2.91038e-10
vn -0.5 -0.866025 1.45519e-10
vn -0.5 -0.866025 1.45519e-10
vn 0.5 -0.866025 1.45519e-10
vn 0.5 -0.866025 1.45519e-10
vn 0 -1 2.91038e-10
vn 0 -1 2.91038e-10
vn 0.866025 -0.5 -1.16976e-10
vn 0.866025 -0.5 -1.16976e-10
vn 0.5 -0.866025 1.45519e-10
vn 0.5 -0.866025 1.45519e-10
vn 1 -1.12616e-06 -3.89925e-11
vn 1 -1.12616e-06 -3.89925e-11
vn 0.866025 -0.5 -1.16976e-10
vn 0.866025 -0.5 -1.16976e-10
vn 0.866024 0.500003 7.79831e-11
vn 0.866024 0.500003 7.79831e-11
vn 1 -1.12616e-06 -3.89925e-11
vn 1 -1.12616e-06 -3.89925e-11
vn 0 0 -1
vn 0 0 -1
vn 0 0 -1
vn 0 0 -1
vn 0 0 -1
vn 0 0 -1
vn 0 0 -1
vn 0 0 -1
vn 0 0 -1
vn 0 0 -1
vn 0 0 -1
vn 0 0 -1
vn 0 0 -1
vn 0 0 -1
vn 0 0 -1
vn 0 0 -1
vn 0 0 -1
vn 0 0 -1
vn 0 0 -1
vn 0 0 -1
vn 0 0 -1
vn 0 0 -1
vn 0 0 -1
vn 0 0 -1
vn 0 0 -1
vn 0 0 -1
vn 0 0 -1
vn 0 0 -1
vn 0 0 -1
vn 0 0 -1
vn 0 0 -1
vn 0 0 -1
vn 0 0 -1
vn 0 0 -1
vn 0 0 -1
vn 0 0 -1
vn 0 0 1
vn 0 0 1
vn 0 0 1
vn 0 0 1
vn 0 0 1
vn 0 0 1
vn 0 0 1
vn 0 0 1
vn 0 0 1
vn 0 0 1
vn 0 0 1
vn 0 0 1
vn 0 0 1
vn 0 0 1
vn 0 0 1
vn 0 0 1
vn 0 0 1
vn 0 0 1
vn 0 0 1
vn 0 0 1
vn 0 0 1
vn 0 0 1
vn 0 0 1
vn 0 0 1
vn 0 0 1
vn 0 0 1
vn 0 0 1
vn 0 0 1
vn 0 0 1
vn 0 0 1
vn 0 0 1
vn 0 0 1
vn 0 0 1
vn 0 0 1
vn 0 0 1
vn 0 0 1
vt 0 0
vt 1 0
vt 1 1
vt 0 1
vt 0 0
vt 1 0
vt 1 1
vt 0 1
vt 0 0
vt 1 0
vt 1 1
vt 0 1
vt 0 0
vt 1 0
vt 1 1
vt 0 1
vt 0 0
vt 1 0
vt 1 1
vt 0 1
vt 0 0
vt 1 0
vt 1 1
vt 0 1
vt 0.916667 1
vt 0.916667 0
vt 1 0
vt 1 1
vt 0.833333 1
vt 0.833333 0
vt 0.916667 0
vt 0.916667 1
vt 0.75 1
vt 0.75 0
vt 0.833333 0
vt 0.833333 1
vt 0.666667 1
vt 0.666667 0
vt 0.75 0
vt 0.75 1
vt 0.583333 1
vt 0.583333 0
vt 0.666667 0
vt 0.666667 1
vt 0.5 1
vt 0.5 0
vt 0.583333 0
vt 0.583333 1
vt 0.416667 1
vt 0.416667 0
vt 0.5 0
vt 0.5 1
vt 0.333333 1
vt 0.333333 0
vt 0.416667 0
vt 0.416667 1
vt 0.25 1
vt 0.25 0
vt 0.333333 0
vt 0.333333 1
vt 0.166667 1
vt 0.166667 0
vt 0.25 0
vt 0.25 1
vt 0.0833333 1
vt 0.0833333 0
vt 0.166667 0
vt 0.166667 1
vt -2.98023e-08 1
vt -2.98023e-08 0
vt 0.0833333 0
vt 0.0833333 1
vt 0 0
vt 0 0
vt 0 0
vt 0 0
vt 0 0
vt 0 0
vt 0 0
vt 0 0
vt 0 0
vt 0 0
vt 0 0
vt 0 0
vt 0 0
vt 0 0
vt 0 0
vt 0 0
vt 0 0
vt 0 0
vt 0 0
vt 0 0
vt 0 0
vt 0 0
vt 0 0
vt 0 0
vt 0 0
vt 0 0
vt 0 0
vt 0 0
vt 0 0
vt 0 0
vt 0 0
vt 0 0
vt 0 0
vt 0 0
vt 0 0
vt 0 0
vt 0 0
vt 0 0
vt 0 0
vt 0 0
vt 0 0
vt 0 0
vt 0 0
vt 0 0
vt 0 0
vt 0 0
vt 0 0
vt 0 0
vt 0 0
vt 0 0
vt 0 0
vt 0 0
vt 0 0
vt 0 0
vt 0 0
vt 0 0
vt 0 0
vt 0 0
vt 0 0
vt 0 0
vt 0 0
vt 0 0
vt 0 0
vt 0 0
vt 0 0
vt 0 0
vt 0 0
vt 0 0
vt 0 0
vt 0 0
vt 0 0
vt 0 0
usemtl acmat_0
f 8/1/1 7/2/2 6/3/3 5/4/4
f 1/5/5 4/6/6 3/7/7 2/8/8
usemtl acmat_1
f 4/9/9 5/10/10 6/11/11 3/12/12
usemtl acmat_0
f 2/13/13 7/14/14 8/15/15 1/16/16
f 1/17/17 8/18/18 5/19/19 4/20/20
f 3/21/21 6/22/22 7/23/23 2/24/24
usemtl acmat_2
f 10/25/25 22/26/26 21/27/27 9/28/28
f 11/29/29 23/30/30 22/31/31 10/32/32
f 12/33/33 24/34/34 23/35/35 11/36/36
f 13/37/37 25/38/38 24/39/39 12/40/40
f 14/41/41 26/42/42 25/43/43 13/44/44
f 15/45/45 27/46/46 26/47/47 14/48/48
f 16/49/49 28/50/50 27/51/51 15/52/52
f 17/53/53 29/54/54 28/55/55 16/56/56
f 18/57/57 30/58/58 29/59/59 17/60/60
f 19/61/61 31/62/62 30/63/63 18/64/64
f 20/65/65 32/66/66 31/67/67 19/68/68
f 9/69/69 21/70/70 32/71/71 20/72/72
f 33/73/73 10/74/74 9/75/75
f 33/76/76 11/77/77 10/78/78
f 33/79/79 12/80/80 11/81/81
f 33/82/82 13/83/83 12/84/84
f 33/85/85 14/86/86 13/87/87
f 33/88/88 15/89/89 14/90/90
f 33/91/91 16/92/92 15/93/93
f 33/94/94 17/95/95 16/96/96
f 33/97/97 18/98/98 17/99/99
f 33/100/100 19/101/101 18/102/102
f 33/103/103 20/104/104 19/105/105
f 33/106/106 9/107/107 20/108/108
usemtl acmat_0
f 34/109/109 21/110/110 22/111/111
f 34/112/112 22/113/113 23/114/114
f 34/115/115 23/116/116 24/117/117
f 34/118/118 24/119/119 25/120/120
f 34/121/121 25/122/122 26/123/123
f 34/124/124 26/125/125 27/126/126
f 34/127/127 27/128/128 28/129/129
f 34/130/130 28/131/131 29/132/132
f 34/133/133 29/134/134 30/135/135
f 34/136/136 30/137/137 31/138/138
f 34/139/139 31/140/140 32/141/141
f 34/142/142 32/143/143 21/144/144
v -0.08565 0.0900172 -0.00836317
v -0.08565 -0.0883628 -0.00836317
v 0.08565 -0.0883628 -0.00836317
v 0.08565 0.0900172 -0.00836317
v -0.08565 0.0803598 0.00190074
v 0.08565 -0.0787054 0.00190074
v -0.08565 0.0900172 0.00190074
v -0.0824798 0.0900172 0.00190074
v 0.08565 0.0900172 0.00190074
v -0.076376 0.0900172 0.00190074
v -0.0822657 0.0900172 0.00190074
v -0.0820263 0.0900172 0.00190074
v -0.08565 -0.0883628 0.00190074
v 0.0763759 -0.0883628 0.00190074
v 0.08565 -0.0883628 0.00190074
v 0.0807538 -0.0883628 0.00190074
v -0.0906485 0.0991898 0.00190074
v -0.0906485 -0.0991898 0.00190074
v -0.0906485 -0.0991898 -0.00895068
v -0.0906485 0.0991898 -0.00895068
v 0.0906485 0.0991898 -0.00895068
v 0.0906485 -0.0991898 -0.00895068
v 0.0906485 -0.0991898 0.00190074
v 0.0906485 0.0991898 0.00190074
vn 0 0 1
vn 0 0 1
vn 0 0 1
vn 0 0 1
vn 0 0 1
vn 0 0 1
vn 0 0 1
vn 0 0 1
vn 0 0 1
vn 0 0 1
vn 0 0 1
vn 0 0 1
vn 0 0 1
vn 0 0 1
vn 0 0 1
vn 0 0 1
vn 0 0 1
vn 0 0 1
vn 0 0 1
vn 0 0 1
vn 0 0 1
vn 0 0 1
vn 0 0 1
vn 0 0 1
vn 0 0 1
vn 0 0 1
vn 0 0 1
vn 0 0 1
vn 0 0 1
vn 0 0 1
vn 0 0 1
vn 0 0 1
vn 0 0 1
vn 0 0 1
vn 0 0 1
vn 0 0 1
vn 0 0 1
vn 0 0 1
vn 0 0 1
vn 0 0 1
vn 0 0 1
vn 0 0 1
vn 0 0 1
vn 0 0 1
vn 0 0 1
vn 0 0 1
vn 0 0 1
vn 0 0 1
vn 0 0 1
vn 0 0 1
vn 0 0 1
vn 0 0 1
vn 0 -1 0
vn 0 -1 0
vn 0 -1 0
vn 0 -1 0
vn 0 1 0
vn 0 1 0
vn 0 1 0
vn 0 1 0
vn 0 0 -1
vn 0 0 -1
vn 0 0 -1
vn 0 0 -1
vn -1 0 0
vn -1 0 0
vn -1 0 0
vn -1 0 0
vn 1 0 0
vn 1 0 0
vn 1 0 0
vn 1 0 0
vn 0 -1 0
vn 0 -1 0
vn 0 -1 0
vn 0 -1 0
vn 0 -1 0
vn 0 -1 0
vn 0 -1 0
vn 0 -1 0
vn 0 1 0
vn 0 1 0
vn 0 1 0
vn 0 1 0
vn 0 1 0
vn 0 1 0
vn -1 0 0
vn -1 0 0
vn -1 0 0
vn -1 0 0
vn -1 0 0
vn 1 0 0
vn 1 0 0
vn 1 0 0
vn 1 0 0
vn 1 0 0
vt 0 1
vt 1 1
vt 1 0
vt 0 0
vt 0 0
vt 0 0
vt 0 0
vt 0 0
vt 0 0
vt 0 0
vt 0 0
vt 0 0
vt 0 0
vt 0 0
vt 0 0
vt 0 0
vt 0 0
vt 0 0
vt 0 0
vt 0 0
vt 0 0
vt 0 0
vt 0 0
vt 0 0
vt 0 0
vt 0 0
vt 0 0
vt 0 0
vt 0 0
vt 0 0
vt 0 0
vt 0 0
vt 0 0
vt 0 0
vt 0 0
vt 0 0
vt 0 0
vt 0 0
vt 0 0
vt 0 0
vt 0 0
vt 0 0
vt 0 0
vt 0 0
vt 0 0
vt 0 0
vt 0 0
vt 0 0
vt 0 0
vt 0 0
vt 0 0
vt 0 0
vt 0 0
vt 1 0
vt 1 1
vt 0 1
vt 0 0
vt 1 0
vt 1 1
vt 0 1
vt 0 0
vt 1 0
vt 1 1
vt 0 1
vt 0 0
vt 1 0
vt 1 1
vt 0 1
vt 0 0
vt 1 0
vt 1 1
vt 0 1
vt 0 0
vt 0 0
vt 0 0
vt 0 0
vt 0 0
vt 0 0
vt 0 0
vt 0 0
vt 0 0
vt 0 0
vt 0 0
vt 0 0
vt 0 0
vt 0 0
vt 0 0
vt 0 0
vt 0 0
vt 0 0
vt 0 0
vt 0 0
vt 0 0
vt 0 0
vt 0 0
vt 0 0
usemtl acmat_3
f 35/145/145 36/146/146 37/147/147 38/148/148
f 39/149/149 41/150/150 51/151/151
f 47/152/152 39/153/153 51/154/154
f 45/155/155 51/156/156 42/157/157
f 40/158/158 49/159/159 58/160/160
f 43/161/161 40/162/162 58/163/163
f 51/164/164 46/165/165 44/166/166
f 42/167/167 51/168/168 41/169/169
f 57/170/170 50/171/171 48/172/172
f 51/173/173 43/174/174 58/175/175
f 51/176/176 44/177/177 43/178/178
f 46/179/179 51/180/180 45/181/181
f 51/182/182 52/183/183 47/184/184
f 57/185/185 47/186/186 52/187/187
f 57/188/188 48/189/189 47/190/190
f 57/191/191 58/192/192 49/193/193
f 50/194/194 57/195/195 49/196/196
f 53/197/197 56/198/198 57/199/199 52/200/200
f 54/201/201 51/202/202 58/203/203 55/204/204
f 55/205/205 56/206/206 53/207/207 54/208/208
f 54/209/209 53/210/210 52/211/211 51/212/212
f 58/213/213 57/214/214 56/215/215 55/216/216
f 46/217/217 45/218/218 42/219/219 41/220/220 35/221/221 38/222/222 43/223/223 44/224/224
f 50/225/225 49/226/226 37/227/227 36/228/228 47/229/229 48/230/230
f 40/231/231 43/232/232 38/233/233 37/234/234 49/235/235
f 39/236/236 47/237/237 36/238/238 35/239/239 41/240/240
